<mxfile host="app.diagrams.net" modified="2024-05-07T21:16:54.490Z" agent="Mozilla/5.0 (Windows NT 10.0; Win64; x64) AppleWebKit/537.36 (KHTML, like Gecko) Chrome/124.0.0.0 Safari/537.36" version="24.3.0" etag="4IoDr4r61rtuMqc11a2m" type="github">
  <diagram name="Page-1" id="2kFZZ2qKpEkKbrDlE8RA">
    <mxGraphModel>
      <root>
        <mxCell id="0" />
        <mxCell id="1" parent="0" />
      </root>
    </mxGraphModel>
  </diagram>
</mxfile>
